<svg width="10" height="12" viewBox="0 0 10 12" fill="none" xmlns="http://www.w3.org/2000/svg">
<path fill-rule="evenodd" clip-rule="evenodd" d="M0.314575 5.32077C0.315293 4.15438 0.779143 3.03601 1.60416 2.2115C2.42918 1.38699 3.54784 0.923828 4.71423 0.923828C7.14351 0.923828 9.11388 2.89284 9.11388 5.32077C9.11388 7.13072 8.20823 8.56501 7.2376 9.53428C6.80791 9.96452 6.32713 10.3405 5.80602 10.6538C5.58806 10.7824 5.38433 10.884 5.20699 10.953C5.0398 11.0193 4.86449 11.0708 4.71423 11.0708C4.56396 11.0708 4.38865 11.0193 4.22147 10.953C4.01448 10.8686 3.81422 10.7686 3.62244 10.6538C3.10132 10.3405 2.62054 9.96452 2.19086 9.53428C1.22023 8.56501 0.314575 7.13072 0.314575 5.32077ZM4.71423 3.62928C4.26543 3.62928 3.83502 3.80756 3.51768 4.1249C3.20033 4.44225 3.02205 4.87266 3.02205 5.32145C3.02205 5.77024 3.20033 6.20065 3.51768 6.518C3.83502 6.83534 4.26543 7.01362 4.71423 7.01362C5.16302 7.01362 5.59343 6.83534 5.91077 6.518C6.22812 6.20065 6.4064 5.77024 6.4064 5.32145C6.4064 4.87266 6.22812 4.44225 5.91077 4.1249C5.59343 3.80756 5.16302 3.62928 4.71423 3.62928Z" fill="currentColor"/>
</svg>
