<svg  xmlns="http://www.w3.org/2000/svg" version="1.1" viewBox="0 0 16.1 16.1">
  <path  d="M12.4,2.8c-.5,0-1,.4-1,1s.4,1,1,1,1-.4,1-1-.4-1-1-1Z"  fill="currentColor"/>
  <path  d="M8.1,3.9c-.8,0-1.6.2-2.3.7-.7.5-1.2,1.1-1.5,1.9-.3.8-.4,1.6-.2,2.4.2.8.6,1.5,1.1,2.1s1.3,1,2.1,1.1c.8.2,1.6,0,2.4-.2.8-.3,1.4-.8,1.9-1.5.5-.7.7-1.5.7-2.3s-.4-2.2-1.2-2.9c-.8-.8-1.8-1.2-2.9-1.2ZM10,10c-.5.5-1.2.8-1.9.8s-1.1-.2-1.5-.5-.8-.7-1-1.2c-.2-.5-.3-1-.2-1.6.1-.5.4-1,.7-1.4s.9-.6,1.4-.7c.5-.1,1.1,0,1.6.2s.9.5,1.2,1c.3.4.5,1,.5,1.5s-.3,1.4-.8,1.9Z"  fill="currentColor"/>
  <path  d="M16.1,4.7c0-.7-.1-1.3-.4-2-.2-.5-.5-1-.9-1.4-.4-.4-.9-.7-1.4-.9-.6-.2-1.3-.4-2-.4-.9,0-1.1,0-3.3,0s-2.5,0-3.3,0h0c-.7,0-1.3.1-2,.4-.5.2-1,.5-1.4.9-.4.4-.7.9-.9,1.4-.2.6-.4,1.3-.4,2,0,.9,0,1.2,0,3.3s0,2.5,0,3.3c0,.7.1,1.3.4,2,.2.5.5,1,.9,1.4.4.4.9.7,1.4.9.6.2,1.3.4,2,.4.9,0,1.1,0,3.3,0s2.5,0,3.3,0c.7,0,1.3-.1,2-.4.5-.2,1-.5,1.4-.9s.7-.9.9-1.4c.2-.6.4-1.3.4-2,0-.9,0-1.2,0-3.3s0-2.5,0-3.3ZM14.7,8.1c0,2.2,0,2.4,0,3.3,0,.5,0,1-.3,1.5-.1.4-.3.7-.6.9-.3.3-.6.5-.9.6-.5.2-1,.3-1.5.3-.8,0-1.1,0-3.3,0s-2.4,0-3.3,0c-.5,0-1,0-1.5-.3-.3-.1-.7-.3-.9-.6-.3-.3-.5-.6-.6-.9-.2-.5-.3-1-.3-1.5,0-.8,0-1.1,0-3.3s0-2.4,0-3.3c0-.5,0-1,.3-1.5.1-.4.3-.7.6-.9.3-.3.6-.5.9-.6.5-.2,1-.3,1.5-.3.8,0,1.1,0,3.3,0s2.4,0,3.3,0c.5,0,1,0,1.5.3h0c.3.1.7.3.9.6.3.3.5.6.6.9.2.5.3,1,.3,1.5,0,.8,0,1.1,0,3.3Z"  fill="currentColor"/>
</svg>