<svg width="14" height="14" viewBox="0 0 14 14" fill="none" xmlns="http://www.w3.org/2000/svg">
<path d="M11.5846 0.432137C11.9652 0.432137 12.3303 0.583352 12.5995 0.852517C12.8686 1.12168 13.0198 1.48675 13.0198 1.86741V11.9143C13.0198 12.2949 12.8686 12.66 12.5995 12.9292C12.3303 13.1983 11.9652 13.3496 11.5846 13.3496H1.53769C1.15703 13.3496 0.791962 13.1983 0.522797 12.9292C0.253632 12.66 0.102417 12.2949 0.102417 11.9143V1.86741C0.102417 1.48675 0.253632 1.12168 0.522797 0.852517C0.791962 0.583352 1.15703 0.432137 1.53769 0.432137H11.5846ZM11.2257 11.5555V7.75201C11.2257 7.13154 10.9793 6.53648 10.5405 6.09774C10.1018 5.659 9.50673 5.41252 8.88626 5.41252C8.27627 5.41252 7.56581 5.78569 7.22135 6.34544V5.54887H5.21915V11.5555H7.22135V8.01753C7.22135 7.46495 7.66628 7.01284 8.21886 7.01284C8.48532 7.01284 8.74087 7.11869 8.92928 7.30711C9.1177 7.49552 9.22355 7.75107 9.22355 8.01753V11.5555H11.2257ZM2.88684 4.42218C3.20659 4.42218 3.51325 4.29516 3.73934 4.06906C3.96544 3.84297 4.09246 3.53631 4.09246 3.21656C4.09246 2.54916 3.55424 2.00376 2.88684 2.00376C2.56518 2.00376 2.2567 2.13153 2.02926 2.35898C1.80181 2.58642 1.67404 2.8949 1.67404 3.21656C1.67404 3.88396 2.21944 4.42218 2.88684 4.42218ZM3.88435 11.5555V5.54887H1.8965V11.5555H3.88435Z" fill="currentColor"/>
</svg>
