<svg width="15" height="16" viewBox="0 0 15 16" fill="none" xmlns="http://www.w3.org/2000/svg">
<path fill-rule="evenodd" clip-rule="evenodd" d="M10.577 15.1627C9.54356 15.1246 6.6149 14.7199 3.54773 11.6534C0.481278 8.58625 0.0772495 5.6583 0.0384973 4.62419C-0.0189134 3.04827 1.18815 1.51755 2.58251 0.919763C2.75042 0.847258 2.9343 0.819653 3.11609 0.839657C3.29789 0.859662 3.47137 0.926587 3.61949 1.03387C4.76771 1.87063 5.55998 3.13654 6.24029 4.13189C6.38998 4.35058 6.45398 4.61669 6.4201 4.87952C6.38622 5.14236 6.25683 5.38354 6.05658 5.55712L4.65647 6.59697C4.58883 6.64581 4.54122 6.71755 4.52247 6.79885C4.50373 6.88016 4.51514 6.9655 4.55457 7.03903C4.87176 7.61529 5.43582 8.47358 6.0817 9.11945C6.72757 9.76532 7.62676 10.3667 8.24321 10.7198C8.3205 10.7632 8.41148 10.7753 8.49744 10.7537C8.5834 10.732 8.6578 10.6783 8.70537 10.6035L9.61676 9.21633C9.78432 8.99376 10.0315 8.84465 10.3065 8.80024C10.5816 8.75582 10.8631 8.81955 11.0922 8.97808C12.1019 9.67705 13.2803 10.4557 14.1429 11.5601C14.2589 11.7093 14.3327 11.8869 14.3565 12.0744C14.3804 12.2619 14.3534 12.4523 14.2785 12.6258C13.6779 14.0274 12.1579 15.2208 10.577 15.1627Z" fill="currentColor"/>
</svg>
