<svg width="13" height="14" viewBox="0 0 13 14" fill="none" xmlns="http://www.w3.org/2000/svg">
<path fill-rule="evenodd" clip-rule="evenodd" d="M6.74582 0.174244C7.48026 0.163025 8.20907 0.168626 8.93788 0.163025C8.98273 1.02082 9.29109 1.89542 9.91896 2.50091C10.5469 3.12323 11.4327 3.40917 12.296 3.50446V5.76387C11.4887 5.73583 10.6758 5.56764 9.9414 5.22004C9.62183 5.07427 9.32471 4.88925 9.03318 4.69864C9.02757 6.33572 9.03879 7.97281 9.02197 9.60428C8.97712 10.3892 8.71922 11.1685 8.26513 11.8132C7.5307 12.8897 6.25808 13.5905 4.95181 13.6129C4.15012 13.6577 3.34842 13.4391 2.66445 13.0354C1.53199 12.3683 0.735888 11.1461 0.618168 9.83415C0.606949 9.55382 0.601349 9.2735 0.61255 8.99879C0.713468 7.93356 1.24046 6.91318 2.05898 6.21798C2.98961 5.41066 4.29026 5.02381 5.50682 5.25368C5.51804 6.08344 5.48442 6.91318 5.48442 7.74294C4.92937 7.56353 4.27906 7.61399 3.79131 7.95038C3.43812 8.18025 3.16902 8.53344 3.02886 8.93151C2.91113 9.21745 2.94477 9.5314 2.95037 9.83415C3.08492 10.7536 3.97071 11.5273 4.91257 11.4432C5.54048 11.4376 6.14035 11.0732 6.46552 10.5406C6.57202 10.3555 6.68976 10.1649 6.69536 9.94627C6.75143 8.94271 6.729 7.94478 6.73462 6.94122C6.74022 4.68182 6.729 2.42803 6.74582 0.174244Z" fill="currentColor"/>
</svg>
